<?xml version="1.0" encoding="utf-8"?>
<svg viewBox="-581.752 -228.147 1298.896 718.285" width="1298.896" height="718.285" xmlns="http://www.w3.org/2000/svg">
  <defs>
    <radialGradient id="a" cx="0" cy="0" r="1" gradientTransform="matrix(0, -877.182983, 1681.060059, 0, 72.436401, 490.088501)" gradientUnits="userSpaceOnUse">
      <stop stop-color="#E9D5FF"/>
      <stop offset="0.223" stop-color="#8383FD"/>
      <stop offset="1" stop-color="#0F172A" stop-opacity=".01"/>
    </radialGradient>
    <filter id="c" width="935.828" height="616.828" x="835.086" y="304.086" color-interpolation-filters="sRGB" filterUnits="userSpaceOnUse">
      <feFlood flood-opacity="0" result="BackgroundImageFix"/>
      <feBlend in="SourceGraphic" in2="BackgroundImageFix" result="shape"/>
      <feGaussianBlur result="effect1_foregroundBlur_401_76334" stdDeviation="67.957"/>
    </filter>
    <linearGradient id="d" x1="974.464" x2="986.754" y1="494.676" y2="790.36" gradientUnits="userSpaceOnUse">
      <stop stop-color="#A855F7"/>
      <stop offset="1" stop-color="#6366F1"/>
    </linearGradient>
    <filter id="e" width="732.828" height="698.828" x="235.086" y="-200.914" color-interpolation-filters="sRGB" filterUnits="userSpaceOnUse">
      <feFlood flood-opacity="0" result="BackgroundImageFix"/>
      <feBlend in="SourceGraphic" in2="BackgroundImageFix" result="shape"/>
      <feGaussianBlur result="effect1_foregroundBlur_401_76334" stdDeviation="67.957"/>
    </filter>
    <linearGradient id="f" x1="264.422" x2="386.568" y1="61.986" y2="432.799" gradientUnits="userSpaceOnUse">
      <stop stop-color="#8383FD"/>
      <stop offset="1" stop-color="#6366F1" stop-opacity=".01"/>
    </linearGradient>
  </defs>
  <mask id="b" width="1376" height="718" x="0" y="0" maskUnits="userSpaceOnUse" style="mask-type:luminance">
    <path fill="#fff" d="M0 0h1376v670c0 26.51-21.49 48-48 48H48c-26.51 0-48-21.49-48-48V0Z" opacity=".5"/>
  </mask>
  <path fill="url(#a)" d="M -615.564 -227.911 L 760.436 -227.911 L 760.436 442.089 C 760.436 468.599 738.946 490.089 712.436 490.089 L -567.564 490.089 C -594.074 490.089 -615.564 468.599 -615.564 442.089 L -615.564 -227.911 Z" opacity=".5"/>
  <g mask="url(#b)" transform="matrix(1, 0, 0, 1, -615.5635986328125, -227.91149902343756)">
    <g filter="url(#c)">
      <path fill="url(#d)" d="M1433.72 442.763a12.272 12.272 0 0 0-13.04-1.568 12.323 12.323 0 0 0-7.02 11.129v98.57H983.296c-6.791 0-12.296 5.516-12.296 12.321v98.57c0 6.805 5.505 12.321 12.296 12.321h430.364v98.57c0 4.755 2.73 9.086 7.02 11.129a12.272 12.272 0 0 0 13.04-1.568l196.74-160.176a12.338 12.338 0 0 0 0-19.122l-196.74-160.176Z"/>
    </g>
    <g filter="url(#e)">
      <path fill="url(#f)" fill-rule="evenodd" d="m371-65 461 369-284 58L371-65Z" clip-rule="evenodd"/>
    </g>
  </g>
</svg>