<svg xmlns="http://www.w3.org/2000/svg" fill="none" class="h-full min-w-[1200px]" preserveAspectRatio="xMinYMin slice" viewBox="0 0 1376 718"><path fill="url(#a)" d="M0 0h1376v670c0 26.51-21.49 48-48 48H48c-26.51 0-48-21.49-48-48V0Z" opacity=".5"/><mask id="b" width="1376" height="718" x="0" y="0" maskUnits="userSpaceOnUse" style="mask-type:luminance"><path fill="#fff" d="M0 0h1376v670c0 26.51-21.49 48-48 48H48c-26.51 0-48-21.49-48-48V0Z" opacity=".5"/></mask><g mask="url(#b)"><g filter="url(#c)"><path fill="url(#d)" d="M1433.72 442.763a12.272 12.272 0 0 0-13.04-1.568 12.323 12.323 0 0 0-7.02 11.129v98.57H983.296c-6.791 0-12.296 5.516-12.296 12.321v98.57c0 6.805 5.505 12.321 12.296 12.321h430.364v98.57c0 4.755 2.73 9.086 7.02 11.129a12.272 12.272 0 0 0 13.04-1.568l196.74-160.176a12.338 12.338 0 0 0 0-19.122l-196.74-160.176Z"/></g><g filter="url(#e)"><path fill="url(#f)" fill-rule="evenodd" d="m371-65 461 369-284 58L371-65Z" clip-rule="evenodd"/></g></g><defs><linearGradient id="d" x1="974.464" x2="986.754" y1="494.676" y2="790.36" gradientUnits="userSpaceOnUse"><stop stop-color="#A855F7"/><stop offset="1" stop-color="#6366F1"/></linearGradient><linearGradient id="f" x1="264.422" x2="386.568" y1="61.986" y2="432.799" gradientUnits="userSpaceOnUse"><stop stop-color="#8383FD"/><stop offset="1" stop-color="#6366F1" stop-opacity=".01"/></linearGradient><filter id="c" width="935.828" height="616.828" x="835.086" y="304.086" color-interpolation-filters="sRGB" filterUnits="userSpaceOnUse"><feFlood flood-opacity="0" result="BackgroundImageFix"/><feBlend in="SourceGraphic" in2="BackgroundImageFix" result="shape"/><feGaussianBlur result="effect1_foregroundBlur_401_76334" stdDeviation="67.957"/></filter><filter id="e" width="732.828" height="698.828" x="235.086" y="-200.914" color-interpolation-filters="sRGB" filterUnits="userSpaceOnUse"><feFlood flood-opacity="0" result="BackgroundImageFix"/><feBlend in="SourceGraphic" in2="BackgroundImageFix" result="shape"/><feGaussianBlur result="effect1_foregroundBlur_401_76334" stdDeviation="67.957"/></filter><radialGradient id="a" cx="0" cy="0" r="1" gradientTransform="matrix(0 -877.183 1681.06 0 688 718)" gradientUnits="userSpaceOnUse"><stop stop-color="#E9D5FF"/><stop offset=".223" stop-color="#8383FD"/><stop offset="1" stop-color="#0F172A" stop-opacity=".01"/></radialGradient></defs></svg>